<svg width="28" height="28" viewBox="0 0 28 28" fill="none" xmlns="http://www.w3.org/2000/svg">
<path fill-rule="evenodd" clip-rule="evenodd" d="M22.3537 6.26348C22.5682 6.45936 22.7043 6.74233 22.7319 7.05016C22.7596 7.35799 22.6765 7.66547 22.5011 7.90498L13.0936 20.7383C13.0011 20.8645 12.886 20.9676 12.7556 21.041C12.6253 21.1145 12.4825 21.1567 12.3367 21.1648C12.1908 21.1729 12.0451 21.1469 11.9088 21.0883C11.7725 21.0297 11.6488 20.9399 11.5455 20.8246L6.31911 14.9913C6.21928 14.8837 6.13964 14.755 6.08486 14.6126C6.03008 14.4703 6.00125 14.3172 6.00004 14.1623C5.99883 14.0074 6.02528 13.8537 6.07784 13.7104C6.1304 13.567 6.20801 13.4367 6.30616 13.3272C6.4043 13.2176 6.52101 13.131 6.64947 13.0724C6.77793 13.0137 6.91557 12.9842 7.05436 12.9855C7.19315 12.9869 7.33032 13.019 7.45784 13.0802C7.58537 13.1413 7.70071 13.2302 7.79714 13.3416L12.2072 17.0949L20.883 6.42798C21.0585 6.18852 21.312 6.03667 21.5878 6.00582C21.8636 5.97497 22.1391 6.06765 22.3537 6.26348Z" fill="#007BFF"/>
</svg>
