<svg width="553" height="167" viewBox="0 0 553 167" fill="none" xmlns="http://www.w3.org/2000/svg">
<path d="M13.8789 78.771C21.4996 46.9327 49.9638 24.4775 82.7016 24.4775C98.3984 24.4775 113.749 29.0908 126.846 37.7438L150.424 53.3227C180.724 73.3427 220.521 71.339 248.657 48.377L251.213 46.2917L272.184 27.0374C291.964 8.87701 320.775 4.51083 345.047 15.9952L398.725 41.392C405.543 44.6183 412.993 46.2917 420.537 46.2917L434.4 46.2917C466.286 46.2916 495.846 62.9805 512.318 90.2823L558 166H-7L13.8789 78.771Z" fill="#CFF0FF"/>
<path d="M548.832 111.08C542.511 73.2191 499.934 53.73 467.147 73.6899C452.342 82.7024 434.844 86.2343 417.703 83.6699L383.814 78.6002C364.352 75.6888 344.467 77.9102 326.127 85.0446L298.627 95.7425C289.479 99.3012 279.358 99.4598 270.103 96.1895L248.392 88.5178C221.994 79.1901 193.303 78.5649 166.524 86.7339L142.203 94.1529C128.012 98.4819 112.6 94.1357 102.762 83.0304C81.277 58.7788 42.0262 64.231 27.9645 93.4204L-7 166H558L548.832 111.08Z" fill="#4EA3FF"/>
<path d="M41.9235 139.365C44.6635 137.817 47.5808 136.607 50.6118 135.76L100.827 121.733C104.769 120.632 108.842 120.073 112.934 120.073H180.009C187.828 120.073 195.623 120.93 203.255 122.629L287.736 141.432C303.529 144.947 320.002 143.826 335.173 138.204L397.309 115.178C402.981 113.076 408.981 112 415.03 112H453.399C464.947 112 476.257 115.278 486.016 121.452L558 167H-7L41.9235 139.365Z" fill="#007BFF"/>
<g filter="url(#filter0_d_343_195)">
<rect x="212.5" y="67" width="130" height="50" rx="4" fill="#0D2E51" shape-rendering="crispEdges"/>
<path d="M237.66 92.3198H234.92L234.906 90.811H237.205C237.611 90.811 237.943 90.7598 238.202 90.6572C238.46 90.5498 238.653 90.396 238.78 90.1958C238.912 89.9907 238.978 89.7417 238.978 89.4487C238.978 89.1167 238.914 88.8481 238.787 88.6431C238.665 88.438 238.473 88.2891 238.209 88.1963C237.95 88.1035 237.616 88.0571 237.205 88.0571H235.682V97H233.485V86.3359H237.205C237.826 86.3359 238.38 86.3945 238.868 86.5117C239.361 86.6289 239.779 86.8071 240.12 87.0464C240.462 87.2856 240.723 87.5884 240.904 87.9546C241.085 88.3159 241.175 88.7456 241.175 89.2437C241.175 89.6831 241.075 90.0884 240.875 90.4595C240.68 90.8306 240.369 91.1333 239.945 91.3677C239.525 91.6021 238.975 91.7314 238.297 91.7559L237.66 92.3198ZM237.564 97H234.32L235.177 95.2861H237.564C237.95 95.2861 238.265 95.2251 238.509 95.103C238.753 94.9761 238.934 94.8052 239.051 94.5903C239.168 94.3755 239.227 94.1289 239.227 93.8506C239.227 93.5381 239.173 93.2671 239.066 93.0376C238.963 92.8081 238.797 92.6323 238.568 92.5103C238.338 92.3833 238.036 92.3198 237.66 92.3198H235.543L235.557 90.811H238.194L238.7 91.4043C239.349 91.3945 239.871 91.5093 240.267 91.7485C240.667 91.9829 240.958 92.2881 241.139 92.6641C241.324 93.04 241.417 93.4429 241.417 93.8726C241.417 94.5562 241.268 95.1323 240.97 95.6011C240.672 96.0649 240.235 96.4141 239.659 96.6484C239.088 96.8828 238.39 97 237.564 97ZM251.301 95.2861V97H245.624V95.2861H251.301ZM246.342 86.3359V97H244.145V86.3359H246.342ZM250.561 90.6792V92.3491H245.624V90.6792H250.561ZM251.293 86.3359V88.0571H245.624V86.3359H251.293ZM260.518 95.2861V97H255.149V95.2861H260.518ZM255.86 86.3359V97H253.662V86.3359H255.86ZM265.194 86.3359V97H263.004V86.3359H265.194ZM277.3 93.1987H274.583V91.4849H277.3C277.72 91.4849 278.062 91.4165 278.326 91.2798C278.589 91.1382 278.782 90.9429 278.904 90.6938C279.026 90.4448 279.087 90.1641 279.087 89.8516C279.087 89.5342 279.026 89.2388 278.904 88.9653C278.782 88.6919 278.589 88.4722 278.326 88.3062C278.062 88.1401 277.72 88.0571 277.3 88.0571H275.345V97H273.147V86.3359H277.3C278.135 86.3359 278.851 86.4873 279.446 86.79C280.047 87.0879 280.506 87.5005 280.823 88.0278C281.141 88.5552 281.299 89.1582 281.299 89.8369C281.299 90.5254 281.141 91.1211 280.823 91.624C280.506 92.127 280.047 92.5151 279.446 92.7886C278.851 93.062 278.135 93.1987 277.3 93.1987ZM287.016 88.1597L284.115 97H281.779L285.741 86.3359H287.228L287.016 88.1597ZM289.425 97L286.517 88.1597L286.283 86.3359H287.785L291.769 97H289.425ZM289.293 93.0303V94.7515H283.661V93.0303H289.293ZM296.035 86.3359V97H293.838V86.3359H296.035ZM302.422 86.3359L298.196 91.6021L295.757 94.2241L295.361 92.144L297.009 89.8882L299.726 86.3359H302.422ZM299.924 97L296.782 92.0708L298.408 90.7085L302.524 97H299.924ZM311.61 95.2861V97H305.933V95.2861H311.61ZM306.651 86.3359V97H304.454V86.3359H306.651ZM310.87 90.6792V92.3491H305.933V90.6792H310.87ZM311.602 86.3359V88.0571H305.933V86.3359H311.602ZM318.886 86.3359V97H316.696V86.3359H318.886ZM322.167 86.3359V88.0571H313.466V86.3359H322.167Z" fill="white"/>
</g>
<defs>
<filter id="filter0_d_343_195" x="209.5" y="64" width="138" height="58" filterUnits="userSpaceOnUse" color-interpolation-filters="sRGB">
<feFlood flood-opacity="0" result="BackgroundImageFix"/>
<feColorMatrix in="SourceAlpha" type="matrix" values="0 0 0 0 0 0 0 0 0 0 0 0 0 0 0 0 0 0 127 0" result="hardAlpha"/>
<feOffset dx="1" dy="1"/>
<feGaussianBlur stdDeviation="2"/>
<feComposite in2="hardAlpha" operator="out"/>
<feColorMatrix type="matrix" values="0 0 0 0 0.158093 0 0 0 0 0.113782 0 0 0 0 1 0 0 0 0.25 0"/>
<feBlend mode="normal" in2="BackgroundImageFix" result="effect1_dropShadow_343_195"/>
<feBlend mode="normal" in="SourceGraphic" in2="effect1_dropShadow_343_195" result="shape"/>
</filter>
</defs>
</svg>
