<svg width="553" height="158" viewBox="0 0 553 158" fill="none" xmlns="http://www.w3.org/2000/svg">
<path d="M13.8789 69.118C21.4996 37.2796 49.9638 14.8244 82.7016 14.8244C98.3984 14.8244 113.749 19.4377 126.846 28.0907L150.424 43.6696C180.724 63.6896 220.521 61.686 248.657 38.7239L251.213 36.6386L272.184 17.3843C291.964 -0.776068 320.775 -5.14224 345.047 6.34211L398.725 31.7389C405.543 34.9652 412.993 36.6386 420.537 36.6386L434.4 36.6386C466.286 36.6385 495.846 53.3275 512.318 80.6292L558 156.347H-7L13.8789 69.118Z" fill="#CFF0FF"/>
<path d="M548.832 101.427C542.511 63.5661 499.934 44.077 467.147 64.0368C452.342 73.0493 434.844 76.5812 417.703 74.0169L383.814 68.9472C364.352 66.0357 344.467 68.2571 326.127 75.3915L298.627 86.0895C289.479 89.6482 279.358 89.8068 270.103 86.5365L248.392 78.8647C221.994 69.537 193.303 68.9118 166.524 77.0808L142.203 84.4998C128.012 88.8288 112.6 84.4826 102.762 73.3773C81.277 49.1257 42.0262 54.578 27.9645 83.7673L-7 156.347H558L548.832 101.427Z" fill="#4EA3FF"/>
<path d="M41.9235 129.712C44.6635 128.164 47.5808 126.954 50.6118 126.107L100.827 112.08C104.769 110.979 108.842 110.42 112.934 110.42H180.009C187.828 110.42 195.623 111.277 203.255 112.976L287.736 131.778C303.529 135.294 320.002 134.173 335.173 128.55L397.309 105.525C402.981 103.423 408.981 102.347 415.03 102.347H453.399C464.947 102.347 476.257 105.625 486.016 111.799L558 157.347H-7L41.9235 129.712Z" fill="#007BFF"/>
</svg>
